<svg xmlns="http://www.w3.org/2000/svg" xmlns:xlink="http://www.w3.org/1999/xlink" aria-hidden="true" role="img" class="iconify iconify--logos" width="31.88" height="32" preserveAspectRatio="xMidYMid meet" viewBox="0 0 256 257"><defs><linearGradient id="IconifyId1813088fe1fbc01fb466" x1="-.828%" x2="57.636%" y1="7.652%" y2="78.411%"><stop offset="0%" stop-color="#41D1FF"></stop><stop offset="100%" stop-color="#BD34FE"></stop></linearGradient><linearGradient id="IconifyId1813088fe1fbc01fb467" x1="43.376%" x2="50.316%" y1="2.242%" y2="89.03%"><stop offset="0%" stop-color="#FFEA83"></stop><stop offset="8.333%" stop-color="#FFDD35"></stop><stop offset="100%" stop-color="#FFA800"></stop></linearGradient></defs><path fill="url(#IconifyId1813088fe1fbc01fb466)" d="M255.153 37.938L134.897 252.976c-2.483 4.44-8.862 4.466-11.382.048L.875 37.958c-2.746-4.814 1.371-10.646 6.827-9.67l120.385 21.517a6.537 6.537 0 007.991-5.865l6.87-121.513c.466-8.254 10.364-10.834 14.165-4.033l51.168 90.475a6.537 6.537 0 008.253 2.836l118.71-45.528c6.791-2.6 12.346 5.886 8.334 11.598z"></path><path fill="url(#IconifyId1813088fe1fbc01fb467)" d="M185.432.063L96.44 17.501a3.268 3.268 0 00-2.634 3.014l-5.474 92.456a3.268 3.268 0 003.997 3.378l24.777-5.718c2.318-.535 4.413 1.507 3.936 3.838l-7.361 36.047c-.495 2.426 1.782 4.5 4.151 3.78l15.146-4.606c2.461-.748 4.992 1.209 4.703 3.753l-5.668 42.894c-.398 3.017 3.406 4.642 5.227 2.356l43.893-52.507c1.641-1.963.193-4.888-2.459-4.619l-17.908 1.847c-2.369.245-4.405-1.639-3.985-3.989l9.708-59.297c.427-2.608-1.838-4.943-4.472-4.47l-25.456 4.613c-2.416.438-4.479-1.675-3.994-4.088l12.863-65.63c.66-3.36-2.845-6.033-5.931-4.612z"></path></svg>
